<svg width="114" height="22" viewBox="0 0 114 22" fill="none" xmlns="http://www.w3.org/2000/svg">
<g clip-path="url(#clip0_2002_18)">
<path d="M11.7883 0H12.8723C14.1776 0.105345 15.5776 0.182966 16.6951 0.936994C17.331 1.35005 17.6553 2.19418 17.3839 2.91078C17.0263 3.89907 15.9798 4.72795 14.8874 4.52974C14.2709 4.35786 13.756 3.95867 13.2675 3.56363C12.4729 2.91633 11.7062 2.20804 10.7627 1.77558C10.0223 1.40965 9.15258 1.43044 8.36215 1.60093C6.95245 1.93636 5.83917 3.00227 5.12528 4.21925C4.24439 5.76058 3.78656 7.54309 3.82831 9.31591C3.82553 11.4574 4.42948 13.6211 5.6527 15.3925C6.88844 17.1833 8.79911 18.532 10.9464 18.9742C12.4674 19.3193 14.1136 19.2375 15.5428 18.5902C16.176 18.313 16.7674 17.9485 17.3296 17.5493C17.6288 17.7239 17.9336 17.8875 18.2522 18.0233C16.8231 19.6367 14.9709 20.9022 12.8932 21.526C10.7125 22.1761 8.29951 22.1386 6.1815 21.2765C3.87005 20.3506 2.0081 18.4586 0.997778 16.2062C0.382691 14.8949 0.0918448 13.4562 0 12.016V11.0485C0.0946307 9.70818 0.370165 8.37199 0.922631 7.14115C1.8884 4.92895 3.59729 3.07019 5.66938 1.83244C7.50907 0.711093 9.63961 0.110887 11.7883 0Z" fill="#021F29"/>
<path d="M34.4157 0H34.4282C34.605 0.0609897 34.7775 0.126135 34.9529 0.188508C34.8193 1.34451 34.7121 2.50466 34.573 3.66066C36.5713 2.21359 38.6712 0.742944 41.1274 0.209302C41.5964 0.0998019 42.0751 0.0526723 42.5524 3.54839e-06H43.4221C44.3364 0.0776245 45.2716 0.21346 46.0912 0.648691C47.0612 1.11996 47.8196 1.9627 48.2496 2.9399C48.8772 4.32183 48.983 5.86593 48.9941 7.36151C48.9941 10.3499 48.9955 13.3369 48.9941 16.3253C48.9886 16.9491 49.0025 17.5756 49.0623 18.1966C49.1444 18.7039 49.2084 19.25 49.5438 19.663C49.8541 20.065 50.337 20.2868 50.8157 20.4171C51.4392 20.5848 52.0737 20.7137 52.7153 20.7788C52.7278 21.0186 52.7306 21.2584 52.7306 21.4982H41.5838C41.5908 21.2626 41.5518 21.0172 41.6144 20.7858C42.5705 20.6208 43.6086 20.5196 44.4185 19.9375C45.1853 19.3359 45.2243 18.2853 45.2952 17.3954C45.3412 15.2941 45.3119 13.19 45.3203 11.0873C45.3078 9.6652 45.3773 8.23198 45.1227 6.82511C44.9278 5.75505 44.5493 4.66281 43.7547 3.88244C42.7055 2.78882 41.1037 2.44922 39.6356 2.48942C38.8758 2.46031 38.1132 2.57813 37.3951 2.82624C36.4321 3.17554 35.5819 3.77571 34.8346 4.4646C34.7288 4.54083 34.7747 4.68083 34.7622 4.78894C34.7705 8.9583 34.758 13.1277 34.7678 17.2984C34.8137 18.0011 34.829 18.733 35.1338 19.3817C35.394 19.9195 35.9534 20.2327 36.5073 20.3949C37.1557 20.5765 37.8195 20.7096 38.4903 20.7816C38.4931 21.02 38.4931 21.2598 38.4931 21.4982C34.7803 21.4982 31.0647 21.4982 27.3505 21.4996C27.3589 21.2598 27.3603 21.02 27.3658 20.7802C28.0338 20.7082 28.6962 20.5696 29.3405 20.3727C29.9459 20.1815 30.5248 19.792 30.7586 19.1807C31.1274 18.1495 31.0494 17.0378 31.094 15.9622V6.47442C31.0814 5.84652 31.0884 5.19367 30.8073 4.61567C30.3634 3.7369 29.5284 3.14781 28.7561 2.57396C28.7547 2.41456 28.7533 2.25655 28.7505 2.09854C30.6361 1.39163 32.5315 0.711061 34.4157 0Z" fill="#021F29"/>
<path d="M61.4962 3.54839e-06H62.4717C63.0729 0.0637645 63.6769 0.124751 64.26 0.286923C65.8311 0.679186 67.2575 1.65222 68.1369 3.01197C68.9107 4.18461 69.2697 5.58594 69.3365 6.97758C64.7261 6.97065 60.1158 6.98174 55.5068 6.97204C55.4052 7.74686 55.3634 8.53 55.312 9.31037C55.1018 11.5392 55.7127 13.8512 57.0584 15.6531C58.2524 17.2818 60.0824 18.4281 62.0737 18.7898C63.3832 19.0185 64.7665 19.0102 66.0273 18.5514C67.3855 18.0746 68.4904 17.0725 69.3365 15.9345C69.5787 16.1091 69.8208 16.2852 70.0601 16.4667C68.7938 18.593 66.8998 20.3921 64.58 21.3236C61.4768 22.5849 57.7278 21.9612 55.1352 19.8682C53.7325 18.7607 52.6721 17.2513 52.0236 15.5949C51.2986 13.7833 51.1038 11.7845 51.3403 9.85647C51.6952 6.65876 53.3929 3.565 56.0955 1.7534C57.6791 0.662551 59.5842 0.106735 61.4962 3.54839e-06ZM59.7192 1.12551C58.3763 1.38332 57.3103 2.39516 56.6354 3.53591C56.1804 4.33291 55.7893 5.19368 55.6571 6.10572C56.7092 5.99345 57.7682 6.04058 58.8216 5.95464C60.8213 5.88256 62.8197 5.7994 64.818 5.70099C64.4952 4.30381 63.9385 2.87614 62.8266 1.9128C61.9917 1.17817 60.806 0.878783 59.7192 1.12551Z" fill="#021F29"/>
<path d="M106.914 2.48315e-06H107.727C109.441 0.11089 111.185 0.575228 112.593 1.57876C112.647 2.98148 112.678 4.38836 112.753 5.79108C112.401 5.86455 112.045 5.92138 111.693 5.99484C111.258 4.57687 110.731 3.0993 109.629 2.05141C108.459 0.939768 106.431 0.799774 105.184 1.85736C104.399 2.53238 104.05 3.60383 104.113 4.61706C104.104 5.69959 104.779 6.64906 105.579 7.32409C106.911 8.43019 108.52 9.11907 110.005 9.99092C111.208 10.6978 112.42 11.5018 113.202 12.6855C113.875 13.6918 114.099 14.9517 113.932 16.141C113.78 17.534 113.074 18.8411 112.041 19.7836C110.508 21.203 108.406 21.9002 106.338 21.9709C104.195 22.0222 102.003 21.476 100.243 20.2286C100.13 18.9728 100.076 17.7128 99.9558 16.457C99.8946 15.9566 99.9336 15.4466 99.8334 14.949C100.21 14.8713 100.589 14.784 100.976 14.766C101.308 16.4196 102.003 18.0496 103.175 19.2902C104.062 20.2064 105.326 20.7664 106.612 20.74C107.571 20.765 108.543 20.4046 109.227 19.7296C110.558 18.4114 110.696 16.0592 109.477 14.6246C108.784 13.7805 107.823 13.2122 106.869 12.7035C105.361 11.8912 103.741 11.2315 102.422 10.1157C101.542 9.39213 100.859 8.40939 100.593 7.29636C100.304 6.04334 100.376 4.67527 100.951 3.50956C101.489 2.39376 102.433 1.51082 103.521 0.931436C104.562 0.365912 105.735 0.0873248 106.914 2.48315e-06Z" fill="#021F29"/>
<path d="M67.0861 0.46573C70.4469 0.471276 73.809 0.471276 77.1711 0.46573C77.1669 0.702752 77.1669 0.939773 77.1697 1.1768C76.5435 1.21699 75.895 1.24194 75.3077 1.49005C74.9278 1.6245 74.5938 1.91974 74.4895 2.31754C74.4101 2.77079 74.4742 3.2393 74.6203 3.67314C74.9417 4.66835 75.355 5.6303 75.7308 6.60472C77.0472 9.97014 78.3873 13.3245 79.6913 16.6941C81.1886 13.2358 82.6429 9.75529 84.1249 6.29008C84.2251 6.07385 84.0762 5.85901 84.0094 5.65802C83.5404 4.55054 83.2204 3.35296 82.4967 2.373C81.8844 1.54411 80.799 1.34452 79.8444 1.1768C79.8471 0.93978 79.8471 0.704146 79.8485 0.467125C83.2496 0.467125 86.6535 0.478213 90.0559 0.461578C90.0559 0.6986 90.0559 0.937006 90.0573 1.17541C89.3225 1.23086 88.5655 1.28076 87.8878 1.59817C87.4522 1.80609 87.1071 2.24825 87.1308 2.74586C87.1503 3.40286 87.4202 4.01967 87.6457 4.62678C89.1542 8.65058 90.7016 12.6592 92.1934 16.6871C92.8141 15.4216 93.361 14.1215 93.9413 12.8366C94.9042 10.6369 95.8533 8.42742 96.6604 6.16532C96.9833 5.18952 97.3201 4.20817 97.4551 3.18662C97.5427 2.63773 97.3813 2.00567 96.8998 1.68133C96.2764 1.2849 95.5152 1.2849 94.8096 1.17956C94.8124 0.941154 94.811 0.704136 94.8096 0.465726C97.4982 0.475428 100.187 0.462955 102.875 0.471273C102.873 0.704136 102.873 0.936998 102.874 1.16986C102.064 1.25303 101.237 1.46787 100.596 1.99181C99.5995 2.7805 99.0957 3.98085 98.5683 5.09665C96.0231 10.7242 93.5071 16.3656 90.9563 21.9889C90.7531 21.9834 90.5513 21.9862 90.3495 22H90.3106C88.418 17.1736 86.5129 12.3515 84.6273 7.52231C82.6108 12.339 80.6403 17.1764 78.6392 22H78.603C78.3804 21.9834 78.1577 21.9806 77.935 21.9834C75.5498 16.0897 73.1702 10.1947 70.7725 4.30521C70.4204 3.49019 70.0586 2.63636 69.385 2.02648C68.7616 1.45403 67.9072 1.23502 67.0819 1.17126C67.0861 0.935629 67.0861 0.701364 67.0861 0.46573Z" fill="#021F29"/>
<path d="M17.4423 6.47166C18.3816 5.70377 19.5325 5.17844 20.7502 5.07032C22.5161 4.87627 24.3516 5.53605 25.5971 6.796C26.6979 7.89795 27.3422 9.44205 27.3199 11C27.3338 12.3418 26.8551 13.6793 26.0076 14.7203C25.1073 15.8403 23.7853 16.622 22.363 16.8507C20.9533 17.0836 19.456 16.8244 18.2397 16.0676C16.702 15.1431 15.6263 13.4922 15.4315 11.7139C15.206 10.0603 15.7501 8.3443 16.837 7.08295C16.51 7.60274 16.3263 8.21123 16.4098 8.82804C16.5253 9.90226 17.4382 10.8323 18.5125 10.9737C19.783 11.1941 21.0897 10.2654 21.3193 9.00962C21.4209 8.44409 21.3499 7.8356 21.0591 7.33245C20.6221 6.52714 19.7106 5.99349 18.7866 6.05032C18.3023 6.04339 17.8584 6.24989 17.4423 6.47166Z" fill="#005DA3"/>
</g>
<defs>
<clipPath id="clip0_2002_18">
<rect width="114" height="22" fill="white"/>
</clipPath>
</defs>
</svg>
