<svg width="153" height="24" viewBox="0 0 153 24" fill="none" xmlns="http://www.w3.org/2000/svg">
<g clip-path="url(#clip0_2135_4829)">
<path d="M2.8091 0.307861H0V22.7807H2.8091V0.307861Z" fill="white"/>
<path d="M36.4787 22.7807H22.9458C22.3671 22.7807 21.8861 22.6089 21.5003 22.268C21.1145 21.9271 20.9216 21.3907 20.9216 20.6639C20.9216 19.6809 21.2968 18.8987 22.0447 18.3199L32.8318 10.326C33.474 9.85564 33.8968 9.35354 34.1003 8.81709C34.3038 8.28328 34.4042 7.52221 34.4042 6.53915C34.4042 5.2337 34.2219 4.28236 33.8572 3.68248C33.4925 3.08261 32.6891 2.78399 31.4498 2.78399H22.4939V0.307861H32.3509C34.2139 0.307861 35.53 0.772962 36.299 1.70316C37.0706 2.63336 37.4538 4.14758 37.4538 6.24582C37.4538 7.72305 37.2714 8.88844 36.9068 9.74465C36.5421 10.6009 35.8154 11.4359 34.724 12.2472L24.7719 19.6967C24.5155 19.9108 24.386 20.0509 24.386 20.1143C24.386 20.2649 24.4812 20.3389 24.6741 20.3389H36.4734V22.778L36.4787 22.7807Z" fill="white"/>
<path d="M7.08758 10.7488L19.6876 0.307861H15.4515L4.75151 9.17384C3.26635 10.4053 3.26635 12.6832 4.75151 13.9121L15.4515 22.778H19.6876L7.08758 12.3371C6.59077 11.9248 6.59077 11.1611 7.08758 10.7488Z" fill="white"/>
</g>
<path d="M144.599 22.7882H135.941C134.911 22.7882 134.128 22.5522 133.591 22.0801C133.055 21.5866 132.787 20.7605 132.787 19.6017V3.44405C132.787 2.28533 133.055 1.46993 133.591 0.997861C134.128 0.504333 134.911 0.257568 135.941 0.257568H144.149C145.887 0.257568 147.357 0.557977 148.558 1.15879C149.76 1.75961 150.672 2.60719 151.294 3.70154C151.916 4.79588 152.356 5.96533 152.614 7.20988C152.871 8.45443 153 9.85991 153 11.4263C153 12.6709 152.925 13.8081 152.775 14.8381C152.646 15.8681 152.388 16.8981 152.002 17.928C151.637 18.9365 151.155 19.7841 150.554 20.4708C149.953 21.1574 149.138 21.7153 148.108 22.1445C147.099 22.5736 145.93 22.7882 144.599 22.7882ZM143.247 2.70375H137.261C136.681 2.70375 136.284 2.82177 136.07 3.05781C135.877 3.27238 135.78 3.65862 135.78 4.21652V18.7971C135.78 19.3979 135.877 19.8056 136.07 20.0202C136.263 20.2347 136.66 20.342 137.261 20.342H143.408C144.503 20.342 145.447 20.1811 146.241 19.8592C147.035 19.5374 147.657 19.1189 148.108 18.6039C148.58 18.089 148.945 17.4345 149.202 16.6406C149.481 15.8252 149.663 15.0205 149.749 14.2266C149.835 13.4326 149.878 12.4992 149.878 11.4263C149.878 10.0959 149.792 8.95869 149.62 8.01455C149.449 7.04895 149.138 6.14772 148.687 5.31087C148.236 4.45256 147.55 3.80883 146.627 3.37967C145.726 2.92906 144.599 2.70375 143.247 2.70375Z" fill="#46CFFF"/>
<path d="M114.597 19.3121C115.541 20.1704 117.139 20.5995 119.392 20.5995C121.645 20.5995 123.244 20.1704 124.188 19.3121C125.132 18.4537 125.604 16.9839 125.604 14.9025V0.257568H128.598V15.1922C128.598 18.0246 127.815 20.0416 126.248 21.2433C124.682 22.4449 122.396 23.0457 119.392 23.0457C116.388 23.0457 114.103 22.4449 112.537 21.2433C110.97 20.0416 110.187 18.0246 110.187 15.1922V0.257568H113.18V14.9025C113.18 16.9839 113.652 18.4537 114.597 19.3121Z" fill="#46CFFF"/>
<path d="M95.4104 0C99.5732 0 102.481 0.847581 104.133 2.54274C105.807 4.23791 106.644 7.23126 106.644 11.5228C106.644 15.8144 105.807 18.8077 104.133 20.5029C102.481 22.198 99.5732 23.0456 95.4104 23.0456C91.269 23.0456 88.3615 22.198 86.6878 20.5029C85.0141 18.8077 84.1773 15.8144 84.1773 11.5228C84.1773 7.23126 85.0141 4.23791 86.6878 2.54274C88.3615 0.847581 91.269 0 95.4104 0ZM88.9731 4.40957C87.8573 5.69703 87.2994 8.06811 87.2994 11.5228C87.2994 14.9775 87.8573 17.3593 88.9731 18.6682C90.1103 19.9557 92.2561 20.5994 95.4104 20.5994C98.5647 20.5994 100.7 19.9557 101.816 18.6682C102.953 17.3593 103.521 14.9775 103.521 11.5228C103.521 8.06811 102.953 5.69703 101.816 4.40957C100.7 3.10064 98.5647 2.44618 95.4104 2.44618C92.2561 2.44618 90.1103 3.10064 88.9731 4.40957Z" fill="#46CFFF"/>
<path d="M84.3366 22.7882H70.3032C68.3935 22.7882 67.4386 21.887 67.4386 20.0845V0.257568H70.432V18.9902C70.432 19.5052 70.5285 19.8592 70.7216 20.0523C70.9362 20.2455 71.3117 20.342 71.8482 20.342H84.3366V22.7882Z" fill="#46CFFF"/>
<path d="M64.5278 22.7882H55.3224C53.8633 22.7882 52.5758 22.5951 51.46 22.2088C50.3442 21.8226 49.443 21.2969 48.7563 20.6317C48.0697 19.9665 47.501 19.1511 47.0504 18.1855C46.6213 17.1985 46.3209 16.1685 46.1492 15.0956C45.999 14.0227 45.9239 12.8211 45.9239 11.4907C45.9239 9.79554 46.0634 8.31495 46.3423 7.04895C46.6213 5.78294 47.1041 4.61349 47.7907 3.5406C48.4774 2.46772 49.4644 1.65232 50.7519 1.09442C52.0394 0.536519 53.6165 0.257568 55.4833 0.257568H64.2059V2.70375H56.4811C53.7131 2.70375 51.7819 3.3904 50.6875 4.7637C49.5932 6.11554 49.046 8.35787 49.046 11.4907C49.046 14.6235 49.5824 16.8873 50.6553 18.2821C51.7282 19.6554 53.6165 20.342 56.3202 20.342H64.5278V22.7882Z" fill="#46CFFF"/>
<defs>
<clipPath id="clip0_2135_4829">
<rect width="118.688" height="22.4728" fill="white" transform="translate(0 0.307861)"/>
</clipPath>
</defs>
</svg>
