<svg width="27" height="15" viewBox="0 0 27 15" fill="none" xmlns="http://www.w3.org/2000/svg">
<path fill-rule="evenodd" clip-rule="evenodd" d="M0 5.27778C0 2.36294 2.36294 0 5.27778 0H7.22222C10.1371 0 12.5 2.36294 12.5 5.27778V10.5556V12.5C12.5 13.8807 11.3807 15 10 15H9.72222H9.30556C8.92202 15 8.61111 14.6891 8.61111 14.3056V14.1667C8.61111 13.8598 8.85984 13.6111 9.16667 13.6111C9.47349 13.6111 9.72222 13.3624 9.72222 13.0556V12.0833C9.72222 11.2396 9.03821 10.5556 8.19444 10.5556H4.86111C2.17639 10.5556 0 8.37916 0 5.69444V5.27778Z" fill="currentColor"/>
<path fill-rule="evenodd" clip-rule="evenodd" d="M13.8889 5.27778C13.8889 2.36294 16.2518 0 19.1667 0H21.1111C24.0259 0 26.3889 2.36294 26.3889 5.27778L26.3889 10.5556V12.5C26.3889 13.8807 25.2696 15 23.8889 15H23.6111H23.1944C22.8109 15 22.5 14.6891 22.5 14.3056V14.1667C22.5 13.8598 22.7487 13.6111 23.0556 13.6111C23.3624 13.6111 23.6111 13.3624 23.6111 13.0556V12.0833C23.6111 11.2396 22.9271 10.5556 22.0833 10.5556H18.75C16.0653 10.5556 13.8889 8.37916 13.8889 5.69444V5.27778Z" fill="currentColor"/>
</svg>
