<svg width="127" height="74" viewBox="0 0 127 74" fill="none" xmlns="http://www.w3.org/2000/svg">
<mask id="path-1-inside-1_2906_31" fill="white">
<path fill-rule="evenodd" clip-rule="evenodd" d="M2 13.1111C2 6.97461 6.97461 2 13.1111 2H49.2214C55.3579 2 60.3325 6.97461 60.3325 13.1111V51.2584C60.3325 51.2585 60.3324 51.2585 60.3324 51.2585V51.2585C60.3323 51.2585 60.3323 51.2586 60.3323 51.2587V66.1663C60.3323 69.3879 57.7207 71.9995 54.4991 71.9995H48.6661C48.666 71.9995 48.6659 71.9996 48.6659 71.9997V71.9997C48.6659 71.9998 48.6658 71.9999 48.6657 71.9999H45.4252C43.6354 71.9999 42.1845 70.5489 42.1845 68.7592V68.111C42.1845 66.6792 43.3452 65.5185 44.777 65.5185V65.5185C46.2088 65.5185 47.3695 64.3578 47.3695 62.926V58.3885C47.3695 54.4507 44.1773 51.2585 40.2395 51.2585H13.1111C6.97461 51.2585 2 46.2839 2 40.1474V13.1111Z"/>
</mask>
<path d="M49.2214 1H13.1111V3H49.2214V1ZM61.3325 51.2584V13.1111H59.3325V51.2584H61.3325ZM59.3323 51.2587V66.1663H61.3323V51.2587H59.3323ZM54.4991 70.9995H48.6661V72.9995H54.4991V70.9995ZM45.4252 72.9999H48.6657V70.9999H45.4252V72.9999ZM41.1845 68.111V68.7592H43.1845V68.111H41.1845ZM48.3695 62.926V58.3885H46.3695V62.926H48.3695ZM13.1111 52.2585H40.2395V50.2585H13.1111V52.2585ZM1 13.1111V40.1474H3V13.1111H1ZM13.1111 50.2585C7.5269 50.2585 3 45.7316 3 40.1474H1C1 46.8362 6.42233 52.2585 13.1111 52.2585V50.2585ZM48.3695 58.3885C48.3695 53.8985 44.7296 50.2585 40.2395 50.2585V52.2585C43.625 52.2585 46.3695 55.003 46.3695 58.3885H48.3695ZM44.777 66.5185C46.7611 66.5185 48.3695 64.9101 48.3695 62.926H46.3695C46.3695 63.8055 45.6565 64.5185 44.777 64.5185V66.5185ZM43.1845 68.111C43.1845 67.2315 43.8975 66.5185 44.777 66.5185V64.5185C42.7929 64.5185 41.1845 66.1269 41.1845 68.111H43.1845ZM45.4252 70.9999C44.1877 70.9999 43.1845 69.9967 43.1845 68.7592H41.1845C41.1845 71.1012 43.0831 72.9999 45.4252 72.9999V70.9999ZM47.6659 71.9997C47.6659 71.4468 48.1143 70.9999 48.6657 70.9999V72.9999C49.2174 72.9999 49.6659 72.5528 49.6659 71.9997H47.6659ZM48.6661 70.9995C48.1123 70.9995 47.6659 71.4487 47.6659 71.9997H49.6659C49.6659 72.5505 49.2196 72.9995 48.6661 72.9995V70.9995ZM59.3323 66.1663C59.3323 68.8356 57.1684 70.9995 54.4991 70.9995V72.9995C58.273 72.9995 61.3323 69.9401 61.3323 66.1663H59.3323ZM60.3324 50.2585C59.78 50.2585 59.3323 50.7063 59.3323 51.2587H61.3323C61.3323 51.8109 60.8846 52.2585 60.3324 52.2585V50.2585ZM59.3325 51.2584C59.3325 50.7062 59.7802 50.2585 60.3324 50.2585V52.2585C60.8847 52.2585 61.3325 51.8108 61.3325 51.2584H59.3325ZM13.1111 1C6.42232 1 1 6.42233 1 13.1111H3C3 7.5269 7.52689 3 13.1111 3V1ZM49.2214 3C54.8056 3 59.3325 7.5269 59.3325 13.1111H61.3325C61.3325 6.42233 55.9102 1 49.2214 1V3Z" fill="#46CFFF" mask="url(#path-1-inside-1_2906_31)"/>
<mask id="path-3-inside-2_2906_31" fill="white">
<path fill-rule="evenodd" clip-rule="evenodd" d="M66.814 13.1111C66.814 6.97461 71.7886 2 77.9251 2H114.035C120.172 2 125.146 6.97461 125.146 13.1111V51.2585C125.146 51.2585 125.146 51.2585 125.146 51.2585V51.2585C125.146 51.2585 125.146 51.2586 125.146 51.2586V66.1663C125.146 69.3879 122.535 71.9995 119.313 71.9995H113.48C113.48 71.9995 113.48 71.9996 113.48 71.9997V71.9997C113.48 71.9998 113.48 71.9999 113.48 71.9999H110.239C108.449 71.9999 106.999 70.5489 106.999 68.7592V68.111C106.999 66.6792 108.159 65.5185 109.591 65.5185V65.5185C111.023 65.5185 112.184 64.3578 112.184 62.926V58.3885C112.184 54.4507 108.991 51.2585 105.054 51.2585H77.9251C71.7886 51.2585 66.814 46.2839 66.814 40.1474V13.1111Z"/>
</mask>
<path d="M114.035 1H77.9251V3H114.035V1ZM126.146 51.2585V13.1111H124.146V51.2585H126.146ZM124.146 51.2586V66.1663H126.146V51.2586H124.146ZM119.313 70.9995H113.48V72.9995H119.313V70.9995ZM110.239 72.9999H113.48V70.9999H110.239V72.9999ZM105.999 68.111V68.7592H107.999V68.111H105.999ZM113.184 62.926V58.3885H111.184V62.926H113.184ZM77.9251 52.2585H105.054V50.2585H77.9251V52.2585ZM65.814 13.1111V40.1474H67.814V13.1111H65.814ZM77.9251 50.2585C72.3409 50.2585 67.814 45.7316 67.814 40.1474H65.814C65.814 46.8362 71.2363 52.2585 77.9251 52.2585V50.2585ZM113.184 58.3885C113.184 53.8985 109.544 50.2585 105.054 50.2585V52.2585C108.439 52.2585 111.184 55.003 111.184 58.3885H113.184ZM109.591 66.5185C111.575 66.5185 113.184 64.9101 113.184 62.926H111.184C111.184 63.8055 110.471 64.5185 109.591 64.5185V66.5185ZM107.999 68.111C107.999 67.2315 108.712 66.5185 109.591 66.5185V64.5185C107.607 64.5185 105.999 66.1269 105.999 68.111H107.999ZM110.239 70.9999C109.002 70.9999 107.999 69.9967 107.999 68.7592H105.999C105.999 71.1012 107.897 72.9999 110.239 72.9999V70.9999ZM112.48 71.9997C112.48 71.4468 112.928 70.9999 113.48 70.9999V72.9999C114.031 72.9999 114.48 72.5528 114.48 71.9997H112.48ZM113.48 70.9995C112.926 70.9995 112.48 71.4487 112.48 71.9997H114.48C114.48 72.5505 114.034 72.9995 113.48 72.9995V70.9995ZM124.146 66.1663C124.146 68.8356 121.982 70.9995 119.313 70.9995V72.9995C123.087 72.9995 126.146 69.9401 126.146 66.1663H124.146ZM125.146 50.2585C124.594 50.2585 124.146 50.7063 124.146 51.2586H126.146C126.146 51.8109 125.699 52.2585 125.146 52.2585V50.2585ZM124.146 51.2585C124.146 50.7062 124.594 50.2585 125.146 50.2585V52.2585C125.699 52.2585 126.146 51.8108 126.146 51.2585H124.146ZM77.9251 1C71.2363 1 65.814 6.42233 65.814 13.1111H67.814C67.814 7.5269 72.3409 3 77.9251 3V1ZM114.035 3C119.62 3 124.146 7.5269 124.146 13.1111H126.146C126.146 6.42233 120.724 1 114.035 1V3Z" fill="#46CFFF" mask="url(#path-3-inside-2_2906_31)"/>
</svg>
