<svg width="29" height="19" viewBox="0 0 29 19" fill="none" xmlns="http://www.w3.org/2000/svg">
<path d="M28.0217 3.39866C27.8613 2.86414 27.5488 2.38021 27.1174 1.99832C26.6738 1.60469 26.1302 1.32311 25.5378 1.18017C23.3207 0.634374 14.4381 0.634374 14.4381 0.634374C10.7351 0.595024 7.03295 0.768094 3.35263 1.15261C2.76021 1.30611 2.21759 1.59397 1.77303 1.9906C1.33622 2.38314 1.01983 2.86719 0.854554 3.39755C0.457522 5.39523 0.264617 7.42362 0.278439 9.45538C0.264272 11.4853 0.456704 13.513 0.854554 15.5132C1.01629 16.0414 1.3315 16.5232 1.76949 16.9124C2.20748 17.3017 2.7529 17.5828 3.35263 17.7317C5.59924 18.2764 14.4381 18.2764 14.4381 18.2764C18.1459 18.3158 21.8527 18.1427 25.5378 17.7581C26.1302 17.6152 26.6738 17.3336 27.1174 16.94C27.5542 16.5508 27.8647 16.0667 28.0205 15.5397C28.4279 13.5428 28.626 11.5135 28.612 9.48074C28.6426 7.43934 28.4448 5.40054 28.0217 3.39755V3.39866ZM11.6142 13.2308V5.68109L19.0045 9.45648L11.6142 13.2308Z" fill="currentColor"/>
</svg>
