<svg width="56" height="57" viewBox="0 0 56 57" fill="none" xmlns="http://www.w3.org/2000/svg">
<path d="M41.0001 28.5H14.9999M41.0001 28.5C48.1797 28.5 54 22.5678 54 15.25C54 7.93223 48.1797 2 41.0001 2H14.9999C7.82009 2 1.99977 7.93249 2 15.2504C2.00023 22.568 7.82042 28.5 14.9999 28.5M41.0001 28.5C48.1797 28.5 54 34.4322 54 41.75C54 49.0678 48.1797 55 41.0001 55H14.9999C7.82042 55 2.00023 49.068 2 41.7504C1.99977 34.4325 7.82009 28.5 14.9999 28.5M42.6243 15.25H26.3744M42.6243 41.75H26.3744M13.3745 41.9991V41.75M13.3745 15.25V15.0009" stroke="currentColor" stroke-width="4" stroke-linecap="round" stroke-linejoin="round"/>
</svg>
