<svg width="49" height="38" viewBox="0 0 49 38" fill="none" xmlns="http://www.w3.org/2000/svg">
<path d="M6.23798 38V6.73395C6.23798 5.83395 6.14798 5.22195 5.96798 4.89795C5.78798 4.53795 5.37398 4.35795 4.72598 4.35795H0.72998V0.199951H7.04798C9.85598 0.199951 11.26 1.60395 11.26 4.41195V38H6.23798Z" fill="currentColor"/>
<path d="M48.4057 38H32.9617C30.5137 38 28.3537 37.676 26.4817 37.028C24.6097 36.38 23.0977 35.498 21.9457 34.382C20.7937 33.266 19.8397 31.898 19.0837 30.278C18.3637 28.622 17.8597 26.894 17.5717 25.094C17.3197 23.294 17.1937 21.278 17.1937 19.046C17.1937 16.202 17.4277 13.718 17.8957 11.594C18.3637 9.46995 19.1737 7.50795 20.3257 5.70795C21.4777 3.90795 23.1337 2.53995 25.2937 1.60395C27.4537 0.667952 30.0997 0.199951 33.2317 0.199951H47.8657V4.30395H34.9057C30.2617 4.30395 27.0217 5.45595 25.1857 7.75995C23.3497 10.028 22.4317 13.79 22.4317 19.046C22.4317 24.302 23.3317 28.1 25.1317 30.44C26.9317 32.744 30.0997 33.896 34.6357 33.896H48.4057V38Z" fill="currentColor"/>
</svg>
