<svg width="66" height="40" viewBox="0 0 66 40" fill="none" xmlns="http://www.w3.org/2000/svg">
<path d="M35.2905 39.3366H28.21L10.0589 24.2201C8.26068 22.7216 7.36156 21.017 7.36156 19.1063C7.36156 17.6078 8.16702 16.1655 9.77795 14.7793L26.4117 0H33.2113L14.6669 16.2404C14.5545 16.3528 14.3485 16.5214 14.0488 16.7461C13.7865 16.9709 13.5805 17.1582 13.4306 17.3081C13.3182 17.4205 13.1684 17.5891 12.9811 17.8139C12.7938 18.0012 12.6626 18.2072 12.5877 18.432C12.5128 18.6568 12.4753 18.8816 12.4753 19.1063C12.4753 20.0429 13.3557 21.223 15.1165 22.6466L35.2905 39.3366ZM0 39.3366V0H5.22615V39.3366H0Z" fill="currentColor"/>
<path d="M63.7103 39.3366H40.2208C39.2093 39.3366 38.3663 39.0369 37.692 38.4375C37.0177 37.8381 36.6805 36.9015 36.6805 35.6277C36.6805 33.9044 37.3361 32.537 38.6473 31.5255L57.5289 17.5329C58.6528 16.7087 59.3833 15.8283 59.7205 14.8917C60.0951 13.9551 60.2824 12.6252 60.2824 10.9019C60.2824 8.61659 59.964 6.94946 59.3271 5.90049C58.6902 4.85151 57.2854 4.32703 55.1125 4.32703H39.434V0H56.686C59.9453 0 62.2493 0.824196 63.598 2.47259C64.9466 4.08351 65.621 6.72468 65.621 10.3961C65.621 12.9811 65.3025 15.0228 64.6657 16.5214C64.0288 18.0199 62.755 19.481 60.8444 20.9046L43.4239 33.9419C42.9743 34.3165 42.7496 34.56 42.7496 34.6724C42.7496 34.9346 42.9181 35.0658 43.2553 35.0658H63.7103V39.3366Z" fill="currentColor"/>
</svg>
