<svg width="57" height="57" viewBox="0 0 57 57" fill="none" xmlns="http://www.w3.org/2000/svg">
<path d="M28.5 43.4063V26.8438M49.7 44.4C46.7729 44.4 44.4 46.7729 44.4 49.7C44.4 52.6271 46.7729 55 49.7 55C52.6271 55 55 52.6271 55 49.7C55 46.7729 52.6271 44.4 49.7 44.4ZM49.7 44.4L49.7 29.1625C49.7 27.6989 48.5136 26.5125 47.05 26.5125H9.95C8.48644 26.5125 7.3 27.6989 7.3 29.1625L7.3 44.4M7.3 44.4C4.37289 44.4 2 46.7729 2 49.7C2 52.6271 4.37289 55 7.3 55C10.2271 55 12.6 52.6271 12.6 49.7C12.6 46.7729 10.2271 44.4 7.3 44.4ZM28.5 55C25.5729 55 23.2 52.6271 23.2 49.7C23.2 46.7729 25.5729 44.4 28.5 44.4C31.4271 44.4 33.8 46.7729 33.8 49.7C33.8 52.6271 31.4271 55 28.5 55ZM11.9375 15.25H45.0625C46.8919 15.25 48.375 13.7669 48.375 11.9375V5.3125C48.375 3.48306 46.8919 2 45.0625 2H11.9375C10.1081 2 8.625 3.48306 8.625 5.3125V11.9375C8.625 13.7669 10.1081 15.25 11.9375 15.25Z" fill="transparent" stroke="currentColor" stroke-width="4" stroke-linecap="round"/>
</svg>
