<svg width="86" height="86" viewBox="0 0 86 86" fill="none" xmlns="http://www.w3.org/2000/svg">
<path d="M60.8481 53.8945C60.8481 69.9364 47.8446 82.941 31.804 82.941C15.7635 82.941 2.76001 69.9364 2.76001 53.8945C2.76001 37.8526 15.7635 24.848 31.804 24.848C47.8446 24.848 60.8481 37.8526 60.8481 53.8945Z" fill="currentColor"/>
<path d="M35.2076 9.62318C40.2152 5.52315 46.6173 3.06311 53.5939 3.06311C69.6344 3.06311 82.6379 16.0677 82.6379 32.1096C82.6379 39.0837 80.1803 45.4836 76.084 50.4906M60.8481 53.8945C60.8481 69.9364 47.8446 82.941 31.804 82.941C15.7635 82.941 2.76001 69.9364 2.76001 53.8945C2.76001 37.8526 15.7635 24.848 31.804 24.848C47.8446 24.848 60.8481 37.8526 60.8481 53.8945Z" stroke="currentColor" stroke-width="5.23789" stroke-linecap="round" stroke-linejoin="round"/>
</svg>
