<svg width="70" height="70" viewBox="0 0 70 70" fill="none" xmlns="http://www.w3.org/2000/svg">
<path d="M45.5264 66.8863V7.95995C45.5264 5.06714 43.1813 2.72205 40.2885 2.72205H29.1686C26.2758 2.72205 23.9307 5.06713 23.9307 7.95994V66.8863M45.5264 66.8863L45.5209 32.1636C45.5204 29.2704 47.8657 26.9248 50.7588 26.9248H61.8779C64.7707 26.9248 67.1158 29.2699 67.1158 32.1627V61.6484C67.1158 64.5412 64.7707 66.8863 61.8779 66.8863H45.5264ZM45.5264 66.8863H23.9307M23.9307 66.8863V50.9432C23.9307 48.0504 21.5856 45.7053 18.6928 45.7053H8.18947C5.29666 45.7053 2.95158 48.0504 2.95158 50.9432V61.6484C2.95158 64.5412 5.29667 66.8863 8.18947 66.8863H23.9307Z" fill="transparent" stroke="currentColor" stroke-width="5.23789" stroke-linecap="round" stroke-linejoin="round"/>
</svg>
