<svg width="80" height="91" viewBox="0 0 80 91" fill="none" xmlns="http://www.w3.org/2000/svg">
<path d="M39.9979 87.7622L71.9381 69.2254C73.6776 68.2159 74.5474 67.7111 75.1763 67.003C75.7097 66.4024 76.1147 65.6991 76.3664 64.9363C76.6632 64.037 76.6632 63.0313 76.6632 61.02V29.3885C76.6632 27.3772 76.6632 26.3715 76.3664 25.4722C76.1147 24.7094 75.7097 24.0061 75.1763 23.4055C74.5474 22.6974 73.6776 22.1926 71.9381 21.1831L44.76 5.41006C43.0075 4.39298 42.1312 3.88445 41.1979 3.69032C40.4064 3.52567 39.5894 3.52567 38.7979 3.69032C37.8646 3.88445 36.9883 4.39299 35.2358 5.41006L8.05771 21.1831C6.31815 22.1926 5.44837 22.6974 4.81947 23.4055C4.28606 24.0061 3.88107 24.7094 3.62938 25.4722C3.33263 26.3715 3.33263 27.3772 3.33263 29.3885V61.02C3.33263 63.0313 3.33263 64.037 3.62938 64.9363C3.88107 65.6991 4.28606 66.4024 4.81947 67.003C5.44837 67.7111 6.31815 68.2159 8.05772 69.2254L39.9979 87.7622ZM39.9979 87.7622V47.8641M39.9979 47.8641L5.59876 26.5852M39.9979 47.8641L74.397 26.5852" fill="transparent" stroke="currentColor" stroke-width="5.23789" stroke-linecap="round" stroke-linejoin="round"/>
</svg>
