<svg width="69" height="84" viewBox="0 0 69 84" fill="none" xmlns="http://www.w3.org/2000/svg">
<path d="M23.0117 73.8656C24.4581 73.8656 25.6306 72.693 25.6306 71.2466C25.6306 69.8002 24.4581 68.6277 23.0117 68.6277V73.8656ZM3.50762 58.2616L0.888669 58.2617L3.50762 58.2616ZM6.1242 3.19361C6.12413 1.74721 4.95154 0.574716 3.50514 0.574778C2.05873 0.574841 0.88624 1.74743 0.886302 3.19384L6.1242 3.19361ZM23.0117 25.7654C24.4581 25.7654 25.6306 24.5928 25.6306 23.1464C25.6306 21.7 24.4581 20.5275 23.0117 20.5275V25.7654ZM62.0246 33.4935L62.0246 30.8745L62.0246 33.4935ZM42.5181 33.4934L42.5181 36.1124L42.5181 33.4934ZM66.36 3.19373L68.9789 3.19378C68.9789 2.49919 68.703 1.83303 68.2119 1.34187C67.7207 0.85071 67.0546 0.574778 66.36 0.574778V3.19373ZM66.3594 29.1651L68.9784 29.1651V29.1651L66.3594 29.1651ZM38.1834 29.1648L35.5644 29.1648V29.1648L38.1834 29.1648ZM38.1835 11.8508L36.4449 9.89215C35.885 10.3892 35.5646 11.1021 35.5645 11.8508L38.1835 11.8508ZM47.9366 3.19373V0.574778C47.2958 0.574778 46.6773 0.809699 46.198 1.23507L47.9366 3.19373ZM62.0246 81.1074L62.0246 78.4885L62.0246 81.1074ZM42.5181 81.1073L42.5181 83.7263L42.5181 81.1073ZM66.36 50.8076L68.9789 50.8077C68.9789 50.1131 68.703 49.4469 68.2119 48.9558C67.7207 48.4646 67.0546 48.1887 66.36 48.1887V50.8076ZM66.3594 76.779L68.9784 76.779V76.779L66.3594 76.779ZM38.1834 76.7788L35.5644 76.7787V76.7787L38.1834 76.7788ZM38.1835 59.4647L36.4449 57.5061C35.885 58.0031 35.5646 58.716 35.5645 59.4647L38.1835 59.4647ZM47.9366 50.8076V48.1887C47.2958 48.1887 46.6773 48.4236 46.198 48.849L47.9366 50.8076ZM23.0117 68.6277H16.5119V73.8656H23.0117V68.6277ZM6.12656 58.2615L6.12505 23.1463L0.887159 23.1465L0.888669 58.2617L6.12656 58.2615ZM6.12505 23.1463L6.1242 3.19361L0.886302 3.19384L0.887159 23.1465L6.12505 23.1463ZM23.0117 20.5275H3.50611V25.7654H23.0117V20.5275ZM16.5119 68.6277C10.7729 68.6277 6.12681 63.9831 6.12656 58.2615L0.888669 58.2617C0.88904 66.8831 7.88723 73.8656 16.5119 73.8656V68.6277ZM62.0246 30.8745L42.5181 30.8745L42.5181 36.1124L62.0246 36.1124L62.0246 30.8745ZM63.741 3.19367L63.7405 29.165L68.9784 29.1651L68.9789 3.19378L63.741 3.19367ZM62.0246 36.1124C65.8614 36.1125 68.9783 33.0056 68.9784 29.1651L63.7405 29.165C63.7404 30.1056 62.9758 30.8745 62.0246 30.8745L62.0246 36.1124ZM35.5644 29.1648C35.5644 33.0054 38.6812 36.1123 42.5181 36.1124L42.5181 30.8745C41.5669 30.8745 40.8023 30.1055 40.8023 29.1649L35.5644 29.1648ZM40.8023 29.1649L40.8024 11.8508L35.5645 11.8508L35.5644 29.1648L40.8023 29.1649ZM47.9366 5.81267H66.36V0.574778H47.9366V5.81267ZM46.198 1.23507L36.4449 9.89215L39.922 13.8095L49.6751 5.15238L46.198 1.23507ZM62.0246 78.4885L42.5181 78.4884L42.5181 83.7263L62.0246 83.7264L62.0246 78.4885ZM63.741 50.8076L63.7405 76.7789L68.9784 76.779L68.9789 50.8077L63.741 50.8076ZM62.0246 83.7264C65.8614 83.7264 68.9783 80.6195 68.9784 76.779L63.7405 76.7789C63.7404 77.7195 62.9758 78.4885 62.0246 78.4885L62.0246 83.7264ZM35.5644 76.7787C35.5644 80.6193 38.6812 83.7263 42.5181 83.7263L42.5181 78.4884C41.5669 78.4884 40.8023 77.7194 40.8023 76.7788L35.5644 76.7787ZM40.8023 76.7788L40.8024 59.4647L35.5645 59.4647L35.5644 76.7787L40.8023 76.7788ZM47.9366 53.4266H66.36V48.1887H47.9366V53.4266ZM46.198 48.849L36.4449 57.5061L39.922 61.4234L49.6751 52.7663L46.198 48.849Z" fill="currentColor"/>
</svg>
