<svg width="84" height="85" viewBox="0 0 84 85" fill="none" xmlns="http://www.w3.org/2000/svg">
<rect x="0.749481" y="0.955811" width="83.1516" height="83.1516" rx="15.7137" fill="currentColor"/>
<path d="M29.1392 37.9204H20.439C18.8257 37.9204 17.7022 38.2757 17.0684 38.9863C16.4346 39.6777 16.1178 41.0125 16.1178 42.9907C16.1178 44.9688 16.4346 46.3132 17.0684 47.0238C17.7022 47.7152 18.8257 48.0609 20.439 48.0609H21.8218C22.6669 48.0609 23.0894 47.6384 23.0894 46.7934V42.4145H29.6001V49.9047C29.6001 50.9034 29.3216 51.6812 28.7647 52.2382C28.2077 52.7951 27.4299 53.0736 26.4312 53.0736H18.2496C15.0038 53.0736 12.7184 52.2862 11.3932 50.7113C10.0872 49.1173 9.4342 46.5437 9.4342 42.9907C9.4342 39.4376 10.0872 36.8737 11.3932 35.2988C12.7184 33.7047 15.0038 32.9077 18.2496 32.9077H29.1392V37.9204ZM38.4087 53.0736H31.898V36.0766C31.898 35.0779 32.1765 34.3001 32.7335 33.7432C33.2904 33.1862 34.0683 32.9077 35.0669 32.9077H46.5039C48.6933 32.9077 50.201 33.4839 51.0268 34.6362C51.8527 35.7886 52.2656 37.5939 52.2656 40.0522C52.2656 42.5105 51.8527 44.3255 51.0268 45.497C50.201 46.6685 48.6933 47.2543 46.5039 47.2543H38.4087V53.0736ZM38.4087 42.2416H42.9893C43.8919 42.2416 44.5449 42.088 44.9482 41.7807C45.3708 41.4542 45.582 40.878 45.582 40.0522C45.582 39.2264 45.3804 38.6694 44.977 38.3813C44.5737 38.074 43.9111 37.9204 42.9893 37.9204H39.6763C38.8312 37.9204 38.4087 38.3429 38.4087 39.1879V42.2416ZM61.9195 47.2255C62.4957 47.7825 63.3792 48.0609 64.5699 48.0609C65.7607 48.0609 66.6345 47.7825 67.1915 47.2255C67.7677 46.6685 68.0557 45.7563 68.0557 44.4887V32.9077H74.5664V45.0073C74.5664 48.0417 73.731 50.1832 72.0601 51.4315C70.4084 52.6799 67.9117 53.3041 64.5699 53.3041C61.2281 53.3041 58.7218 52.6799 57.0509 51.4315C55.3992 50.1832 54.5734 48.0417 54.5734 45.0073V32.9077H61.0841V44.4887C61.0841 45.7563 61.3626 46.6685 61.9195 47.2255Z" fill="#46CFFF"/>
</svg>
