<svg width="82" height="72" viewBox="0 0 82 72" fill="none" xmlns="http://www.w3.org/2000/svg">
<path d="M21.8055 68.941H19.8003C14.2629 68.941 9.77395 64.4312 9.77395 58.8681V38.7223C9.77395 35.6193 3.25684 34.1896 3.25684 34.1896C3.25684 34.1896 9.77395 32.9946 9.77395 29.6568V13.5402C9.77395 7.97707 14.2629 3.46729 19.8003 3.46729H21.8055M60.6576 3.46729H62.6629C68.2003 3.46729 72.6892 7.97707 72.6892 13.5402V33.6859C72.6892 36.789 79.2063 38.2187 79.2063 38.2187C79.2063 38.2187 72.6892 39.4136 72.6892 42.7515L72.6892 58.8681C72.6892 64.4312 68.2002 68.941 62.6629 68.941H60.6576M24.6176 36.8494V36.4908M41.2316 36.8494V36.4908M57.8455 36.8494V36.4908" stroke="currentColor" stroke-width="5.23789" stroke-linecap="round" stroke-linejoin="round"/>
</svg>
