<svg xmlns="http://www.w3.org/2000/svg" xmlns:xlink="http://www.w3.org/1999/xlink"><defs><clipPath id="clip0_2002_18"><path fill="#fff" d="M0 0h114v22H0z"/></clipPath><clipPath id="clip0_2002_4"><path fill="#fff" transform="translate(0 .308)" d="M0 0h118.688v22.473H0z"/></clipPath></defs><symbol id="logo-cn" viewBox="0 0 114 22"><g clip-path="url(#clip0_2002_18)"><path d="M11.788 0h1.084c1.306.105 2.706.183 3.823.937.636.413.96 1.257.689 1.974-.358.988-1.404 1.817-2.497 1.619-.616-.172-1.131-.571-1.62-.966-.794-.648-1.56-1.356-2.504-1.788-.74-.366-1.61-.346-2.4-.175-1.41.335-2.524 1.401-3.238 2.618a9.87 9.87 0 00-1.297 5.097c-.002 2.141.601 4.305 1.825 6.076 1.235 1.791 3.146 3.14 5.293 3.582 1.521.345 3.168.264 4.597-.384a10.124 10.124 0 001.787-1.04c.299.174.604.337.922.473-1.429 1.614-3.281 2.88-5.359 3.503-2.18.65-4.593.613-6.712-.25-2.311-.925-4.173-2.817-5.183-5.07-.615-1.311-.906-2.75-.998-4.19v-.967c.095-1.34.37-2.677.923-3.908.965-2.212 2.674-4.07 4.746-5.309C7.51.712 9.64.111 11.79 0zm22.628 0h.012c.177.061.35.126.525.189-.134 1.156-.24 2.316-.38 3.472C36.571 2.214 38.671.743 41.127.209c.47-.11.948-.156 1.425-.209h.87c.914.078 1.85.213 2.67.649.97.471 1.728 1.314 2.158 2.29.627 1.383.733 2.927.744 4.423 0 2.988.002 5.975 0 8.963-.005.624.008 1.25.068 1.872.082.507.146 1.053.482 1.466.31.402.793.624 1.272.754.623.168 1.258.297 1.9.362.012.24.015.48.015.72H41.584c.007-.236-.032-.482.03-.713.957-.165 1.995-.266 2.805-.849.766-.601.805-1.652.876-2.542.046-2.1.017-4.205.025-6.308-.012-1.422.057-2.855-.197-4.262-.195-1.07-.574-2.162-1.368-2.943-1.05-1.093-2.651-1.433-4.12-1.393a6.156 6.156 0 00-2.24.337c-.963.35-1.813.95-2.56 1.639-.106.076-.06.216-.073.324.008 4.17-.004 8.339.006 12.51.046.702.061 1.434.366 2.083.26.537.82.85 1.373 1.013.649.181 1.313.315 1.983.387.003.238.003.478.003.716-3.713 0-7.428 0-11.143.002.009-.24.01-.48.016-.72.668-.072 1.33-.21 1.974-.407.606-.192 1.185-.581 1.419-1.192.368-1.032.29-2.143.335-3.219V6.474c-.013-.627-.006-1.28-.287-1.858-.444-.88-1.279-1.468-2.05-2.042l-.007-.475C30.636 1.392 32.532.71 34.416 0zm27.08 0h.976c.6.064 1.205.125 1.788.287 1.571.392 2.997 1.365 3.877 2.725.774 1.173 1.133 2.574 1.2 3.966-4.61-.007-9.221.004-13.83-.006-.102.775-.144 1.558-.195 2.338-.21 2.23.4 4.541 1.746 6.343a8.072 8.072 0 005.016 3.137c1.31.229 2.692.22 3.953-.239 1.358-.476 2.463-1.478 3.31-2.616.242.174.484.35.723.532-1.266 2.126-3.16 3.925-5.48 4.857-3.103 1.26-6.852.637-9.445-1.456-1.402-1.107-2.463-2.617-3.111-4.273-.725-1.812-.92-3.81-.684-5.739.355-3.197 2.053-6.291 4.755-8.103C57.68.663 59.586.107 61.496 0zM59.72 1.126c-1.343.257-2.409 1.27-3.084 2.41-.455.797-.846 1.658-.978 2.57 1.052-.113 2.111-.065 3.165-.151 2-.072 3.998-.156 5.996-.254-.323-1.397-.88-2.825-1.991-3.788a3.57 3.57 0 00-3.108-.787zM106.914 0h.813c1.714.11 3.458.575 4.866 1.579.054 1.402.085 2.81.16 4.212-.352.074-.708.13-1.06.204-.435-1.418-.962-2.896-2.064-3.944-1.17-1.111-3.198-1.251-4.445-.194-.785.675-1.134 1.747-1.071 2.76-.009 1.083.666 2.032 1.466 2.707 1.332 1.106 2.941 1.795 4.426 2.667 1.203.707 2.415 1.51 3.197 2.694.673 1.007.897 2.267.73 3.456-.152 1.393-.858 2.7-1.891 3.643-1.533 1.419-3.635 2.116-5.703 2.187-2.143.051-4.335-.495-6.095-1.742-.113-1.256-.167-2.516-.287-3.772-.061-.5-.022-1.01-.123-1.508.377-.078.756-.165 1.143-.183.332 1.654 1.027 3.284 2.199 4.524.887.916 2.151 1.476 3.437 1.45.959.025 1.931-.335 2.615-1.01 1.331-1.319 1.469-3.67.25-5.105-.693-.845-1.654-1.413-2.608-1.921-1.508-.813-3.128-1.473-4.447-2.588-.88-.724-1.563-1.707-1.829-2.82-.289-1.253-.217-2.62.358-3.786.538-1.116 1.482-2 2.57-2.579 1.041-.565 2.214-.844 3.393-.931z" fill="#021F29"/><path d="M67.086.466c3.36.005 6.723.005 10.085 0a24.01 24.01 0 00-.001.71c-.627.041-1.275.066-1.862.314-.38.135-.714.43-.819.828-.079.453-.015.921.131 1.355.322.995.735 1.957 1.11 2.932 1.317 3.365 2.657 6.72 3.961 10.09 1.498-3.46 2.952-6.94 4.434-10.405.1-.216-.049-.431-.116-.632-.469-1.107-.789-2.305-1.512-3.285-.613-.829-1.698-1.028-2.653-1.196.003-.237.003-.473.005-.71 3.4 0 6.804.011 10.207-.005l.001.713c-.734.056-1.492.106-2.17.423-.435.208-.78.65-.756 1.148.02.657.29 1.274.515 1.88 1.508 4.025 3.056 8.033 4.547 12.061.621-1.265 1.168-2.566 1.748-3.85.963-2.2 1.912-4.41 2.72-6.672.322-.975.66-1.957.794-2.978.088-.55-.074-1.181-.555-1.506-.624-.396-1.385-.396-2.09-.501.002-.239.001-.476 0-.714 2.688.01 5.377-.003 8.065.005a54.29 54.29 0 00-.001.699c-.81.083-1.637.298-2.278.822-.996.788-1.5 1.989-2.028 3.105-2.545 5.627-5.06 11.269-7.612 16.892a6.358 6.358 0 00-.606.011h-.04c-1.892-4.826-3.797-9.649-5.683-14.478C82.611 12.34 80.64 17.176 78.64 22h-.036a7.677 7.677 0 00-.668-.017C75.55 16.09 73.17 10.195 70.772 4.305c-.352-.815-.713-1.669-1.387-2.279-.623-.572-1.478-.791-2.303-.855.004-.235.004-.47.004-.705z" fill="#021F29"/><path d="M17.442 6.472c.94-.768 2.09-1.294 3.308-1.402 1.766-.194 3.602.466 4.847 1.726 1.1 1.102 1.745 2.646 1.723 4.204a5.857 5.857 0 01-1.312 3.72 5.945 5.945 0 01-3.645 2.13c-1.41.234-2.907-.026-4.123-.782-1.538-.925-2.614-2.576-2.808-4.354-.226-1.654.318-3.37 1.405-4.631-.327.52-.51 1.128-.427 1.745.115 1.074 1.028 2.004 2.102 2.146 1.271.22 2.578-.709 2.807-1.964.102-.566.03-1.174-.26-1.678-.437-.805-1.348-1.339-2.272-1.282-.485-.007-.929.2-1.345.422z" fill="#005DA3"/></g></symbol><symbol id="logo" viewBox="0 0 153 24"><g clip-path="url(#clip0_2002_4)" fill="#021F29"><path d="M2.81.308H0V22.78h2.81V.308zM36.479 22.78H22.946c-.579 0-1.06-.171-1.446-.512-.386-.34-.578-.877-.578-1.604 0-.983.375-1.765 1.123-2.344l10.787-7.994c.642-.47 1.065-.972 1.268-1.509.204-.534.304-1.295.304-2.278 0-1.305-.182-2.257-.547-2.856-.364-.6-1.168-.899-2.407-.899h-8.956V.308h9.857c1.863 0 3.179.465 3.948 1.395.772.93 1.155 2.445 1.155 4.543 0 1.477-.183 2.642-.547 3.499-.365.856-1.092 1.691-2.183 2.502l-9.952 7.45c-.256.214-.386.354-.386.417 0 .15.095.225.288.225h11.8v2.44l.005.002zM7.088 10.749L19.688.308h-4.236l-10.7 8.866a3.076 3.076 0 000 4.738l10.7 8.866h4.236l-12.6-10.44a1.032 1.032 0 010-1.59z"/></g><path d="M144.599 22.788h-8.658c-1.03 0-1.813-.236-2.35-.708-.536-.493-.804-1.32-.804-2.478V3.444c0-1.159.268-1.974.804-2.446.537-.494 1.32-.74 2.35-.74h8.208c1.738 0 3.208.3 4.409.9 1.202.602 2.114 1.45 2.736 2.544a11.974 11.974 0 011.32 3.508c.257 1.244.386 2.65.386 4.216 0 1.245-.075 2.382-.225 3.412a13.608 13.608 0 01-.773 3.09c-.365 1.009-.847 1.856-1.448 2.543-.601.686-1.416 1.244-2.446 1.674-1.009.429-2.178.643-3.509.643zm-1.352-20.084h-5.986c-.58 0-.977.118-1.191.354-.193.214-.29.6-.29 1.159v14.58c0 .6.097 1.009.29 1.223.193.215.59.322 1.191.322h6.147c1.095 0 2.039-.16 2.833-.483.794-.322 1.416-.74 1.867-1.255.472-.515.837-1.17 1.094-1.963.279-.816.461-1.62.547-2.414a26.41 26.41 0 00.129-2.8c0-1.331-.086-2.468-.258-3.412a8.948 8.948 0 00-.933-2.704c-.451-.858-1.137-1.502-2.06-1.931-.901-.45-2.028-.676-3.38-.676zm-28.65 16.608c.944.858 2.542 1.287 4.795 1.287s3.852-.429 4.796-1.287c.944-.858 1.416-2.328 1.416-4.41V.258h2.994v14.934c0 2.833-.783 4.85-2.35 6.051-1.566 1.202-3.852 1.803-6.856 1.803s-5.289-.601-6.855-1.803c-1.567-1.201-2.35-3.218-2.35-6.05V.257h2.993v14.645c0 2.08.472 3.55 1.417 4.41zM95.41 0c4.163 0 7.071.848 8.723 2.543 1.674 1.695 2.511 4.688 2.511 8.98 0 4.291-.837 7.285-2.511 8.98-1.652 1.695-4.56 2.543-8.723 2.543-4.141 0-7.048-.848-8.722-2.543-1.674-1.695-2.51-4.689-2.51-8.98 0-4.292.836-7.285 2.51-8.98C88.362.848 91.269 0 95.41 0zm-6.437 4.41C87.857 5.697 87.3 8.068 87.3 11.523c0 3.454.558 5.836 1.674 7.145 1.137 1.288 3.283 1.931 6.437 1.931 3.155 0 5.29-.643 6.406-1.93 1.137-1.31 1.705-3.692 1.705-7.146 0-3.455-.568-5.826-1.705-7.113-1.116-1.31-3.251-1.964-6.406-1.964-3.154 0-5.3.655-6.437 1.964zm-4.636 18.378H70.303c-1.91 0-2.864-.901-2.864-2.703V.258h2.993V18.99c0 .515.096.87.29 1.062.214.194.59.29 1.126.29h12.489v2.446zm-19.809 0h-9.206c-1.459 0-2.746-.193-3.862-.58-1.116-.385-2.017-.911-2.704-1.576-.686-.666-1.255-1.48-1.706-2.446a12.724 12.724 0 01-.9-3.09 26.164 26.164 0 01-.226-3.605c0-1.695.14-3.176.418-4.442a10.745 10.745 0 011.449-3.508c.686-1.073 1.673-1.889 2.96-2.447C52.04.537 53.618.258 55.484.258h8.723v2.446H56.48c-2.768 0-4.7.686-5.794 2.06-1.094 1.352-1.641 3.594-1.641 6.727 0 3.133.536 5.396 1.61 6.791 1.072 1.373 2.96 2.06 5.664 2.06h8.208v2.446z" fill="#46CFFF"/></symbol></svg>