<svg xmlns="http://www.w3.org/2000/svg" xmlns:xlink="http://www.w3.org/1999/xlink"><defs><clipPath id="clip0_2135_4829"><path fill="#fff" transform="translate(0 .308)" d="M0 0h118.688v22.473H0z"/></clipPath><clipPath id="clip0_2002_18"><path fill="#fff" d="M0 0h114v22H0z"/></clipPath><clipPath id="clip0_2002_4"><path fill="#fff" transform="translate(0 .308)" d="M0 0h118.688v22.473H0z"/></clipPath></defs><symbol id="arrow-right" viewBox="0 0 20 25"><path d="M9.5 2l6.104 6a6.288 6.288 0 010 9L9.5 23" fill="transparent" stroke="currentColor" stroke-width="4" stroke-linecap="round"/><path d="M16 15h2v-4h-2v4zM2 11a2 2 0 100 4v-4zm14 0H2v4h14v-4z" fill="currentColor"/></symbol><symbol id="arrow-up" viewBox="0 0 25 20"><path d="M2 10l6-6.104a6.288 6.288 0 019 0L23 10" stroke="#46CFFF" stroke-width="4" stroke-linecap="round"/><path d="M14.5 3.5v-2h-4v2h4zm-4 14a2 2 0 104 0h-4zm0-14v14h4v-14h-4z" fill="#46CFFF"/></symbol><symbol id="chevron-left" viewBox="0 0 28 62"><path d="M26 60L7.689 43.429c-7.585-6.864-7.585-17.994 0-24.858L26 2" fill="transparent" stroke="currentColor" stroke-width="4" stroke-linecap="round"/></symbol><symbol id="chevron-right" viewBox="0 0 28 62"><path d="M2 2l18.311 16.571c7.585 6.864 7.585 17.994 0 24.858L2 60" fill="transparent" stroke="currentColor" stroke-width="4" stroke-linecap="round"/></symbol><symbol id="close" viewBox="0 0 24 24"><path d="M20.746 3.329a1 1 0 00-1.415 0l-7.294 7.294-7.294-7.294a1 1 0 10-1.414 1.414l7.294 7.294-7.294 7.294a1 1 0 001.414 1.415l7.294-7.295 7.294 7.295a1 1 0 001.415-1.415l-7.295-7.294 7.295-7.294a1 1 0 000-1.414z" fill="currentColor"/></symbol><symbol id="logo-2" viewBox="0 0 153 24"><g clip-path="url(#clip0_2135_4829)" fill="#fff"><path d="M2.81.308H0V22.78h2.81V.308zM36.479 22.78H22.946c-.579 0-1.06-.171-1.446-.512-.386-.34-.578-.877-.578-1.604 0-.983.375-1.765 1.123-2.344l10.787-7.994c.642-.47 1.065-.972 1.268-1.509.204-.534.304-1.295.304-2.278 0-1.305-.182-2.257-.547-2.857-.364-.6-1.168-.898-2.407-.898h-8.956V.308h9.857c1.863 0 3.179.465 3.948 1.395.772.93 1.155 2.445 1.155 4.543 0 1.477-.183 2.642-.547 3.499-.365.856-1.092 1.69-2.183 2.502l-9.952 7.45c-.256.214-.386.354-.386.417 0 .15.095.225.288.225h11.8v2.439l.005.003zM7.088 10.749L19.688.308h-4.236l-10.7 8.866a3.076 3.076 0 000 4.738l10.7 8.866h4.236l-12.6-10.44a1.033 1.033 0 010-1.59z"/></g><path d="M144.599 22.788h-8.658c-1.03 0-1.813-.236-2.35-.708-.536-.493-.804-1.32-.804-2.478V3.444c0-1.159.268-1.974.804-2.446.537-.494 1.32-.74 2.35-.74h8.208c1.738 0 3.208.3 4.409.9 1.202.602 2.114 1.45 2.736 2.544a11.974 11.974 0 011.32 3.508c.257 1.244.386 2.65.386 4.216 0 1.245-.075 2.382-.225 3.412a13.606 13.606 0 01-.773 3.09c-.365 1.008-.847 1.856-1.448 2.543-.601.686-1.416 1.244-2.446 1.674-1.009.429-2.178.643-3.509.643zm-1.352-20.084h-5.986c-.58 0-.977.118-1.191.354-.193.214-.29.6-.29 1.159v14.58c0 .6.097 1.009.29 1.223.193.215.59.322 1.191.322h6.147c1.095 0 2.039-.16 2.833-.483.794-.322 1.416-.74 1.867-1.255.472-.515.837-1.17 1.094-1.963.279-.816.461-1.62.547-2.414a26.41 26.41 0 00.129-2.8c0-1.331-.086-2.468-.258-3.412a8.948 8.948 0 00-.933-2.704c-.451-.858-1.137-1.502-2.06-1.931-.901-.45-2.028-.676-3.38-.676zm-28.65 16.608c.944.858 2.542 1.287 4.795 1.287s3.852-.429 4.796-1.287c.944-.858 1.416-2.328 1.416-4.41V.258h2.994v14.934c0 2.833-.783 4.85-2.35 6.051-1.566 1.202-3.852 1.803-6.856 1.803s-5.289-.601-6.855-1.803c-1.567-1.201-2.35-3.218-2.35-6.05V.257h2.993v14.645c0 2.08.472 3.55 1.417 4.41zM95.41 0c4.163 0 7.071.848 8.723 2.543 1.674 1.695 2.511 4.688 2.511 8.98 0 4.291-.837 7.285-2.511 8.98-1.652 1.695-4.56 2.543-8.723 2.543-4.141 0-7.048-.848-8.722-2.543-1.674-1.695-2.51-4.689-2.51-8.98 0-4.292.836-7.285 2.51-8.98C88.362.848 91.269 0 95.41 0zm-6.437 4.41C87.857 5.697 87.3 8.068 87.3 11.523c0 3.454.558 5.836 1.674 7.145 1.137 1.288 3.283 1.931 6.437 1.931 3.155 0 5.29-.643 6.406-1.93 1.137-1.31 1.705-3.692 1.705-7.146 0-3.455-.568-5.826-1.705-7.113-1.116-1.31-3.251-1.964-6.406-1.964-3.154 0-5.3.655-6.437 1.964zm-4.636 18.378H70.303c-1.91 0-2.864-.901-2.864-2.704V.258h2.993V18.99c0 .515.096.87.29 1.062.214.194.59.29 1.126.29h12.489v2.446zm-19.809 0h-9.206c-1.459 0-2.746-.193-3.862-.58-1.116-.385-2.017-.911-2.704-1.576-.686-.666-1.255-1.48-1.706-2.447a12.686 12.686 0 01-.9-3.09 26.164 26.164 0 01-.226-3.604c0-1.695.14-3.176.418-4.442a10.745 10.745 0 011.449-3.508c.686-1.073 1.673-1.889 2.96-2.447C52.04.537 53.618.258 55.484.258h8.723v2.446H56.48c-2.768 0-4.7.686-5.794 2.06-1.094 1.352-1.641 3.594-1.641 6.727 0 3.133.536 5.396 1.61 6.791 1.072 1.373 2.96 2.06 5.664 2.06h8.208v2.446z" fill="#46CFFF"/></symbol><symbol id="logo-cn" viewBox="0 0 114 22"><g clip-path="url(#clip0_2002_18)"><path d="M11.788 0h1.084c1.306.105 2.706.183 3.823.937.636.413.96 1.257.689 1.974-.358.988-1.404 1.817-2.497 1.619-.616-.172-1.131-.571-1.62-.966-.794-.648-1.56-1.356-2.504-1.788-.74-.366-1.61-.346-2.4-.175-1.41.335-2.524 1.401-3.238 2.618a9.87 9.87 0 00-1.297 5.097c-.002 2.141.601 4.305 1.825 6.076 1.235 1.791 3.146 3.14 5.293 3.582 1.521.345 3.168.264 4.597-.384a10.124 10.124 0 001.787-1.04c.299.174.604.337.922.473-1.429 1.614-3.281 2.88-5.359 3.503-2.18.65-4.593.613-6.712-.25-2.311-.925-4.173-2.817-5.183-5.07-.615-1.311-.906-2.75-.998-4.19v-.967c.095-1.34.37-2.677.923-3.908.965-2.212 2.674-4.07 4.746-5.309C7.51.712 9.64.111 11.79 0zm22.628 0h.012c.177.061.35.126.525.189-.134 1.156-.24 2.316-.38 3.472C36.571 2.214 38.671.743 41.127.209c.47-.11.948-.156 1.425-.209h.87c.914.078 1.85.213 2.67.649.97.471 1.728 1.314 2.158 2.29.627 1.383.733 2.927.744 4.423 0 2.988.002 5.975 0 8.963-.005.624.008 1.25.068 1.872.082.507.146 1.053.482 1.466.31.402.793.624 1.272.754.623.168 1.258.297 1.9.362.012.24.015.48.015.72H41.584c.007-.236-.032-.482.03-.713.957-.165 1.995-.266 2.805-.849.766-.601.805-1.652.876-2.542.046-2.1.017-4.205.025-6.308-.012-1.422.057-2.855-.197-4.262-.195-1.07-.574-2.162-1.368-2.943-1.05-1.093-2.651-1.433-4.12-1.393a6.156 6.156 0 00-2.24.337c-.963.35-1.813.95-2.56 1.639-.106.076-.06.216-.073.324.008 4.17-.004 8.339.006 12.51.046.702.061 1.434.366 2.083.26.537.82.85 1.373 1.013.649.181 1.313.315 1.983.387.003.238.003.478.003.716-3.713 0-7.428 0-11.143.002.009-.24.01-.48.016-.72.668-.072 1.33-.21 1.974-.407.606-.192 1.185-.581 1.419-1.192.368-1.032.29-2.143.335-3.219V6.474c-.013-.627-.006-1.28-.287-1.858-.444-.88-1.279-1.468-2.05-2.042l-.007-.475C30.636 1.392 32.532.71 34.416 0zm27.08 0h.976c.6.064 1.205.125 1.788.287 1.571.392 2.997 1.365 3.877 2.725.774 1.173 1.133 2.574 1.2 3.966-4.61-.007-9.221.004-13.83-.006-.102.775-.144 1.558-.195 2.338-.21 2.23.4 4.541 1.746 6.343a8.072 8.072 0 005.016 3.137c1.31.229 2.692.22 3.953-.239 1.358-.476 2.463-1.478 3.31-2.616.242.174.484.35.723.532-1.266 2.126-3.16 3.925-5.48 4.857-3.103 1.26-6.852.637-9.445-1.456-1.402-1.107-2.463-2.617-3.111-4.273-.725-1.812-.92-3.81-.684-5.739.355-3.197 2.053-6.291 4.755-8.103C57.68.663 59.586.107 61.496 0zM59.72 1.126c-1.343.257-2.409 1.27-3.084 2.41-.455.797-.846 1.658-.978 2.57 1.052-.113 2.111-.065 3.165-.151 2-.072 3.998-.156 5.996-.254-.323-1.397-.88-2.825-1.991-3.788a3.57 3.57 0 00-3.108-.787zM106.914 0h.813c1.714.11 3.458.575 4.866 1.579.054 1.402.085 2.81.16 4.212-.352.074-.708.13-1.06.204-.435-1.418-.962-2.896-2.064-3.944-1.17-1.111-3.198-1.251-4.445-.194-.785.675-1.134 1.747-1.071 2.76-.009 1.083.666 2.032 1.466 2.707 1.332 1.106 2.941 1.795 4.426 2.667 1.203.707 2.415 1.51 3.197 2.694.673 1.007.897 2.267.73 3.456-.152 1.393-.858 2.7-1.891 3.643-1.533 1.419-3.635 2.116-5.703 2.187-2.143.051-4.335-.495-6.095-1.742-.113-1.256-.167-2.516-.287-3.772-.061-.5-.022-1.01-.123-1.508.377-.078.756-.165 1.143-.183.332 1.654 1.027 3.284 2.199 4.524.887.916 2.151 1.476 3.437 1.45.959.025 1.931-.335 2.615-1.01 1.331-1.319 1.469-3.67.25-5.105-.693-.845-1.654-1.413-2.608-1.921-1.508-.813-3.128-1.473-4.447-2.588-.88-.724-1.563-1.707-1.829-2.82-.289-1.253-.217-2.62.358-3.786.538-1.116 1.482-2 2.57-2.579 1.041-.565 2.214-.844 3.393-.931z" fill="#021F29"/><path d="M67.086.466c3.36.005 6.723.005 10.085 0a24.01 24.01 0 00-.001.71c-.627.041-1.275.066-1.862.314-.38.135-.714.43-.819.828-.079.453-.015.921.131 1.355.322.995.735 1.957 1.11 2.932 1.317 3.365 2.657 6.72 3.961 10.09 1.498-3.46 2.952-6.94 4.434-10.405.1-.216-.049-.431-.116-.632-.469-1.107-.789-2.305-1.512-3.285-.613-.829-1.698-1.028-2.653-1.196.003-.237.003-.473.005-.71 3.4 0 6.804.011 10.207-.005l.001.713c-.734.056-1.492.106-2.17.423-.435.208-.78.65-.756 1.148.02.657.29 1.274.515 1.88 1.508 4.025 3.056 8.033 4.547 12.061.621-1.265 1.168-2.566 1.748-3.85.963-2.2 1.912-4.41 2.72-6.672.322-.975.66-1.957.794-2.978.088-.55-.074-1.181-.555-1.506-.624-.396-1.385-.396-2.09-.501.002-.239.001-.476 0-.714 2.688.01 5.377-.003 8.065.005a54.29 54.29 0 00-.001.699c-.81.083-1.637.298-2.278.822-.996.788-1.5 1.989-2.028 3.105-2.545 5.627-5.06 11.269-7.612 16.892a6.358 6.358 0 00-.606.011h-.04c-1.892-4.826-3.797-9.649-5.683-14.478C82.611 12.34 80.64 17.176 78.64 22h-.036a7.677 7.677 0 00-.668-.017C75.55 16.09 73.17 10.195 70.772 4.305c-.352-.815-.713-1.669-1.387-2.279-.623-.572-1.478-.791-2.303-.855.004-.235.004-.47.004-.705z" fill="#021F29"/><path d="M17.442 6.472c.94-.768 2.09-1.294 3.308-1.402 1.766-.194 3.602.466 4.847 1.726 1.1 1.102 1.745 2.646 1.723 4.204a5.857 5.857 0 01-1.312 3.72 5.945 5.945 0 01-3.645 2.13c-1.41.234-2.907-.026-4.123-.782-1.538-.925-2.614-2.576-2.808-4.354-.226-1.654.318-3.37 1.405-4.631-.327.52-.51 1.128-.427 1.745.115 1.074 1.028 2.004 2.102 2.146 1.271.22 2.578-.709 2.807-1.964.102-.566.03-1.174-.26-1.678-.437-.805-1.348-1.339-2.272-1.282-.485-.007-.929.2-1.345.422z" fill="#005DA3"/></g></symbol><symbol id="logo" viewBox="0 0 153 24"><g clip-path="url(#clip0_2002_4)" fill="#021F29"><path d="M2.81.308H0V22.78h2.81V.308zM36.479 22.78H22.946c-.579 0-1.06-.171-1.446-.512-.386-.34-.578-.877-.578-1.604 0-.983.375-1.765 1.123-2.344l10.787-7.994c.642-.47 1.065-.972 1.268-1.509.204-.534.304-1.295.304-2.278 0-1.305-.182-2.257-.547-2.856-.364-.6-1.168-.899-2.407-.899h-8.956V.308h9.857c1.863 0 3.179.465 3.948 1.395.772.93 1.155 2.445 1.155 4.543 0 1.477-.183 2.642-.547 3.499-.365.856-1.092 1.691-2.183 2.502l-9.952 7.45c-.256.214-.386.354-.386.417 0 .15.095.225.288.225h11.8v2.44l.005.002zM7.088 10.749L19.688.308h-4.236l-10.7 8.866a3.076 3.076 0 000 4.738l10.7 8.866h4.236l-12.6-10.44a1.032 1.032 0 010-1.59z"/></g><path d="M144.599 22.788h-8.658c-1.03 0-1.813-.236-2.35-.708-.536-.493-.804-1.32-.804-2.478V3.444c0-1.159.268-1.974.804-2.446.537-.494 1.32-.74 2.35-.74h8.208c1.738 0 3.208.3 4.409.9 1.202.602 2.114 1.45 2.736 2.544a11.974 11.974 0 011.32 3.508c.257 1.244.386 2.65.386 4.216 0 1.245-.075 2.382-.225 3.412a13.608 13.608 0 01-.773 3.09c-.365 1.009-.847 1.856-1.448 2.543-.601.686-1.416 1.244-2.446 1.674-1.009.429-2.178.643-3.509.643zm-1.352-20.084h-5.986c-.58 0-.977.118-1.191.354-.193.214-.29.6-.29 1.159v14.58c0 .6.097 1.009.29 1.223.193.215.59.322 1.191.322h6.147c1.095 0 2.039-.16 2.833-.483.794-.322 1.416-.74 1.867-1.255.472-.515.837-1.17 1.094-1.963.279-.816.461-1.62.547-2.414a26.41 26.41 0 00.129-2.8c0-1.331-.086-2.468-.258-3.412a8.948 8.948 0 00-.933-2.704c-.451-.858-1.137-1.502-2.06-1.931-.901-.45-2.028-.676-3.38-.676zm-28.65 16.608c.944.858 2.542 1.287 4.795 1.287s3.852-.429 4.796-1.287c.944-.858 1.416-2.328 1.416-4.41V.258h2.994v14.934c0 2.833-.783 4.85-2.35 6.051-1.566 1.202-3.852 1.803-6.856 1.803s-5.289-.601-6.855-1.803c-1.567-1.201-2.35-3.218-2.35-6.05V.257h2.993v14.645c0 2.08.472 3.55 1.417 4.41zM95.41 0c4.163 0 7.071.848 8.723 2.543 1.674 1.695 2.511 4.688 2.511 8.98 0 4.291-.837 7.285-2.511 8.98-1.652 1.695-4.56 2.543-8.723 2.543-4.141 0-7.048-.848-8.722-2.543-1.674-1.695-2.51-4.689-2.51-8.98 0-4.292.836-7.285 2.51-8.98C88.362.848 91.269 0 95.41 0zm-6.437 4.41C87.857 5.697 87.3 8.068 87.3 11.523c0 3.454.558 5.836 1.674 7.145 1.137 1.288 3.283 1.931 6.437 1.931 3.155 0 5.29-.643 6.406-1.93 1.137-1.31 1.705-3.692 1.705-7.146 0-3.455-.568-5.826-1.705-7.113-1.116-1.31-3.251-1.964-6.406-1.964-3.154 0-5.3.655-6.437 1.964zm-4.636 18.378H70.303c-1.91 0-2.864-.901-2.864-2.703V.258h2.993V18.99c0 .515.096.87.29 1.062.214.194.59.29 1.126.29h12.489v2.446zm-19.809 0h-9.206c-1.459 0-2.746-.193-3.862-.58-1.116-.385-2.017-.911-2.704-1.576-.686-.666-1.255-1.48-1.706-2.446a12.724 12.724 0 01-.9-3.09 26.164 26.164 0 01-.226-3.605c0-1.695.14-3.176.418-4.442a10.745 10.745 0 011.449-3.508c.686-1.073 1.673-1.889 2.96-2.447C52.04.537 53.618.258 55.484.258h8.723v2.446H56.48c-2.768 0-4.7.686-5.794 2.06-1.094 1.352-1.641 3.594-1.641 6.727 0 3.133.536 5.396 1.61 6.791 1.072 1.373 2.96 2.06 5.664 2.06h8.208v2.446z" fill="#46CFFF"/></symbol><symbol id="progress-up" viewBox="0 0 14 10"><path d="M6.222.388a.975.975 0 011.556 0l6.034 8.105c.466.626.011 1.507-.778 1.507H.966c-.79 0-1.244-.88-.778-1.507L6.222.388z" fill="currentColor"/></symbol><symbol id="quotes" viewBox="0 0 27 15"><path fill-rule="evenodd" clip-rule="evenodd" d="M0 5.278A5.278 5.278 0 015.278 0h1.944A5.278 5.278 0 0112.5 5.278V12.5A2.5 2.5 0 0110 15h-.694a.694.694 0 01-.695-.694v-.14c0-.306.249-.555.556-.555a.556.556 0 00.555-.555v-.973c0-.843-.684-1.527-1.528-1.527H4.861A4.861 4.861 0 010 5.694v-.416zm13.889 0A5.278 5.278 0 0119.167 0h1.944a5.278 5.278 0 015.278 5.278V12.5a2.5 2.5 0 01-2.5 2.5h-.695a.694.694 0 01-.694-.694v-.14c0-.306.249-.555.556-.555a.555.555 0 00.555-.555v-.973c0-.843-.684-1.527-1.528-1.527H18.75a4.861 4.861 0 01-4.861-4.862v-.416z" fill="currentColor"/></symbol><symbol id="socials-bot" viewBox="0 0 26 23"><rect y="5" width="26" height="18" rx="9" fill="currentColor"/><rect x="7" width="2" height="7" rx="1" fill="currentColor"/><rect x="17" y="17" width="2" height="8" rx="1" transform="rotate(90 17 17)" fill="#fff"/><rect x="7" y="11" width="3" height="3" rx="1.5" fill="#fff"/><rect x="16" y="11" width="3" height="3" rx="1.5" fill="#fff"/><rect x="17" width="2" height="7" rx="1" fill="currentColor"/></symbol><symbol id="socials-habr" viewBox="0 0 18 19"><path d="M14.039 7.637v3.273H3.884V7.637h10.155zM5.474.629v17.653H.702V.629h4.772zm11.773 0v17.653H12.49V.629h4.758z" fill="currentColor"/></symbol><symbol id="socials-tg" viewBox="0 0 23 20"><path d="M22.102 2.222c.167-1.061-.855-1.9-1.81-1.485L1.261 8.993c-.686.297-.636 1.323.075 1.546l3.924 1.235c.75.236 1.56.114 2.214-.332l8.848-6.04c.267-.183.558.192.33.424l-6.369 6.489c-.618.629-.495 1.696.248 2.156l7.13 4.419c.8.495 1.83-.003 1.98-.958l2.46-15.71z" fill="currentColor"/></symbol><symbol id="socials-yt" viewBox="0 0 29 19"><path d="M28.022 3.399a3.041 3.041 0 00-.905-1.4 3.679 3.679 0 00-1.58-.819C23.322.634 14.439.634 14.439.634a96.795 96.795 0 00-11.085.519 3.805 3.805 0 00-1.58.838 3.165 3.165 0 00-.918 1.407 30.02 30.02 0 00-.577 6.057c-.014 2.03.179 4.058.577 6.058.161.528.476 1.01.914 1.4.438.389.984.67 1.584.819 2.246.544 11.085.544 11.085.544 3.708.04 7.415-.133 11.1-.518a3.679 3.679 0 001.58-.818c.436-.39.747-.873.902-1.4.408-1.997.606-4.026.592-6.06.03-2.04-.167-4.08-.59-6.082zM11.614 13.23V5.68l7.39 3.775-7.39 3.775z" fill="currentColor"/></symbol><symbol id="solutions1" viewBox="0 0 66 40"><path d="M35.29 39.337h-7.08L10.059 24.22c-1.798-1.498-2.697-3.203-2.697-5.114 0-1.498.805-2.94 2.416-4.327L26.412 0h6.8L14.666 16.24a6.44 6.44 0 01-.618.506c-.262.225-.468.412-.618.562a7.995 7.995 0 00-.45.506 1.577 1.577 0 00-.393.618c-.075.225-.113.45-.113.674 0 .937.88 2.117 2.642 3.54l20.173 16.69zm-35.29 0V0h5.226v39.337H0zm63.71 0H40.22c-1.01 0-1.854-.3-2.528-.9-.674-.599-1.011-1.535-1.011-2.81 0-1.723.655-3.09 1.966-4.102L57.53 17.534c1.124-.824 1.854-1.705 2.191-2.641.375-.937.562-2.267.562-3.99 0-2.285-.318-3.953-.955-5.002-.637-1.048-2.042-1.573-4.215-1.573H39.434V0h17.252c3.26 0 5.563.824 6.912 2.473 1.349 1.61 2.023 4.252 2.023 7.923 0 2.585-.319 4.627-.955 6.125-.637 1.499-1.911 2.96-3.822 4.384l-17.42 13.037c-.45.374-.674.618-.674.73 0 .263.168.394.505.394H63.71v4.27z" fill="currentColor"/></symbol><symbol id="solutions2" viewBox="0 0 49 62"><path d="M24.5 59S47 39.174 47 24.304C47 11.986 36.926 2 24.5 2S2 11.986 2 24.304C2 39.174 24.5 59 24.5 59z" fill="transparent" stroke="currentColor" stroke-width="4"/><path d="M31.688 23.375c0 3.936-3.217 7.125-7.187 7.125s-7.188-3.19-7.188-7.125 3.218-7.125 7.188-7.125c3.97 0 7.187 3.19 7.187 7.125z" fill="transparent" stroke="currentColor" stroke-width="4"/></symbol><symbol id="solutions3" viewBox="0 0 56 57"><path d="M41 28.5H15m26 0c7.18 0 13-5.932 13-13.25S48.18 2 41 2H15C7.82 2 2 7.932 2 15.25S7.82 28.5 15 28.5m26 0c7.18 0 13 5.932 13 13.25S48.18 55 41 55H15C7.82 55 2 49.068 2 41.75S7.82 28.5 15 28.5m27.624-13.25h-16.25m16.25 26.5h-16.25m-13 .25v-.25m0-26.5V15" fill="transparent" stroke="currentColor" stroke-width="4" stroke-linecap="round" stroke-linejoin="round"/></symbol><symbol id="solutions4" viewBox="0 0 49 38"><path d="M6.238 38V6.734c0-.9-.09-1.512-.27-1.836-.18-.36-.594-.54-1.242-.54H.73V.2h6.318c2.808 0 4.212 1.404 4.212 4.212V38H6.238zm42.168 0H32.962c-2.448 0-4.608-.324-6.48-.972-1.872-.648-3.384-1.53-4.536-2.646-1.152-1.116-2.106-2.484-2.862-4.104a21.446 21.446 0 01-1.512-5.184c-.252-1.8-.378-3.816-.378-6.048 0-2.844.234-5.328.702-7.452a18.023 18.023 0 012.43-5.886c1.152-1.8 2.808-3.168 4.968-4.104C27.454.668 30.1.2 33.232.2h14.634v4.104h-12.96c-4.644 0-7.884 1.152-9.72 3.456-1.836 2.268-2.754 6.03-2.754 11.286 0 5.256.9 9.054 2.7 11.394 1.8 2.304 4.968 3.456 9.504 3.456h13.77V38z" fill="currentColor"/></symbol><symbol id="solutions5" viewBox="0 0 57 57"><path d="M28.5 43.406V26.844M49.7 44.4a5.3 5.3 0 100 10.6 5.3 5.3 0 000-10.6zm0 0V29.163a2.65 2.65 0 00-2.65-2.65H9.95a2.65 2.65 0 00-2.65 2.65V44.4m0 0a5.3 5.3 0 100 10.6 5.3 5.3 0 000-10.6zM28.5 55a5.3 5.3 0 110-10.6 5.3 5.3 0 010 10.6zM11.937 15.25h33.126a3.313 3.313 0 003.312-3.313V5.314A3.313 3.313 0 0045.062 2H11.938a3.313 3.313 0 00-3.313 3.313v6.625a3.313 3.313 0 003.313 3.312z" fill="transparent" stroke="currentColor" stroke-width="4" stroke-linecap="round"/></symbol><symbol id="trends1" viewBox="0 0 70 70"><path d="M45.526 66.886V7.96a5.238 5.238 0 00-5.238-5.238h-11.12a5.238 5.238 0 00-5.237 5.238v58.926m21.595 0l-.005-34.722a5.238 5.238 0 015.238-5.24h11.119a5.238 5.238 0 015.238 5.239v29.485a5.238 5.238 0 01-5.238 5.238H45.526zm0 0H23.931m0 0V50.943a5.238 5.238 0 00-5.238-5.238H8.189a5.238 5.238 0 00-5.237 5.238v10.705a5.238 5.238 0 005.237 5.238h15.742z" fill="transparent" stroke="currentColor" stroke-width="5.238" stroke-linecap="round" stroke-linejoin="round"/></symbol><symbol id="trends10" viewBox="0 0 74 71"><path d="M22.84 3.522H7.817c-2.686 0-4.863 2.208-4.863 4.932v9.16l-.002 42.272c0 4.67 3.81 8.455 8.51 8.455h51.07c4.702 0 8.512-3.785 8.512-8.455l-.001-33.818c0-4.67-3.811-8.454-8.512-8.454H41.277a7.857 7.857 0 01-6.423-3.332l-5.04-7.154a8.528 8.528 0 00-6.974-3.606z" fill="transparent" stroke="currentColor" stroke-width="5.238" stroke-linecap="round"/></symbol><symbol id="trends11" viewBox="0 0 80 91"><path d="M39.998 87.762l31.94-18.537c1.74-1.01 2.61-1.514 3.238-2.222.534-.6.939-1.304 1.19-2.067.297-.899.297-1.905.297-3.916V29.388c0-2.01 0-3.017-.297-3.916a5.893 5.893 0 00-1.19-2.067c-.629-.708-1.498-1.212-3.238-2.222L44.76 5.41c-1.752-1.017-2.629-1.526-3.562-1.72a5.892 5.892 0 00-2.4 0c-.933.194-1.81.703-3.562 1.72L8.058 21.183c-1.74 1.01-2.61 1.514-3.239 2.223a5.893 5.893 0 00-1.19 2.066c-.296.9-.296 1.905-.296 3.916V61.02c0 2.011 0 3.017.296 3.916a5.893 5.893 0 001.19 2.067c.63.708 1.5 1.213 3.239 2.222l31.94 18.537zm0 0V47.864m0 0l-34.4-21.279m34.4 21.28l34.399-21.28" fill="transparent" stroke="currentColor" stroke-width="5.238" stroke-linecap="round" stroke-linejoin="round"/></symbol><symbol id="trends12" viewBox="0 0 82 72"><path d="M21.805 68.941H19.8c-5.537 0-10.026-4.51-10.026-10.073V38.722c0-3.103-6.517-4.532-6.517-4.532s6.517-1.195 6.517-4.533V13.54c0-5.563 4.489-10.073 10.026-10.073h2.005m38.853 0h2.005c5.537 0 10.026 4.51 10.026 10.073v20.146c0 3.103 6.517 4.533 6.517 4.533s-6.517 1.195-6.517 4.532v16.117c0 5.563-4.489 10.073-10.026 10.073h-2.005m-36.04-32.092v-.358m16.614.358v-.358m16.614.358v-.358" fill="transparent" stroke="currentColor" stroke-width="5.238" stroke-linecap="round" stroke-linejoin="round"/></symbol><symbol id="trends13" viewBox="0 0 84 85"><rect x=".749" y=".956" width="83.152" height="83.152" rx="15.714" fill="currentColor"/><path d="M29.14 37.92h-8.701c-1.613 0-2.737.356-3.37 1.066-.634.692-.951 2.027-.951 4.005 0 1.978.317 3.322.95 4.033.634.691 1.758 1.037 3.371 1.037h1.383c.845 0 1.267-.423 1.267-1.268v-4.379H29.6v7.49c0 1-.278 1.777-.835 2.334-.557.557-1.335.836-2.334.836H18.25c-3.246 0-5.532-.788-6.857-2.363-1.306-1.594-1.959-4.167-1.959-7.72s.653-6.117 1.96-7.692c1.324-1.594 3.61-2.391 6.856-2.391h10.89v5.012zm9.269 15.154h-6.511V36.077c0-1 .278-1.777.835-2.334.557-.557 1.335-.835 2.334-.835h11.437c2.19 0 3.697.576 4.523 1.728.826 1.153 1.239 2.958 1.239 5.416 0 2.459-.413 4.273-1.24 5.445-.825 1.172-2.333 1.757-4.522 1.757h-8.095v5.82zm0-10.832h4.58c.903 0 1.556-.154 1.96-.461.422-.327.633-.903.633-1.729 0-.826-.202-1.383-.605-1.67-.403-.308-1.066-.462-1.988-.462h-3.313c-.845 0-1.267.423-1.267 1.268v3.054zm23.51 4.983c.577.557 1.46.836 2.65.836 1.192 0 2.066-.279 2.623-.836.576-.556.864-1.469.864-2.736V32.908h6.51v12.1c0 3.034-.835 5.175-2.506 6.423-1.652 1.249-4.148 1.873-7.49 1.873-3.342 0-5.848-.624-7.52-1.873-1.65-1.248-2.477-3.39-2.477-6.424v-12.1h6.511V44.49c0 1.267.279 2.18.835 2.736z" fill="#46CFFF"/></symbol><symbol id="trends14" viewBox="0 0 69 84"><path d="M23.012 73.866a2.619 2.619 0 000-5.238v5.238zM3.508 58.262H.888h2.62zM6.124 3.194a2.619 2.619 0 00-5.238 0h5.238zm16.888 22.571a2.619 2.619 0 000-5.238v5.238zm39.013 7.728v-2.619 2.62zm-19.507 0v2.62-2.62zm23.842-30.3h2.619A2.62 2.62 0 0066.36.576v2.619zm0 25.972h2.618-2.619zm-28.177 0h-2.619 2.62zm0-17.314l-1.738-1.959a2.62 2.62 0 00-.88 1.959h2.619zm9.754-8.657V.574c-.641 0-1.26.236-1.739.661l1.739 1.959zm14.088 77.913V78.49v2.618zm-19.507 0v2.62-2.62zm23.842-30.3h2.619a2.619 2.619 0 00-2.619-2.618v2.619zm0 25.972h2.618-2.619zm-28.177 0h-2.619 2.62zm0-17.314l-1.738-1.959a2.62 2.62 0 00-.88 1.959h2.619zm9.754-8.657v-2.62c-.641 0-1.26.236-1.739.661l1.739 1.959zm-24.925 17.82h-6.5v5.238h6.5v-5.238zM6.127 58.26l-.002-35.115H.887L.89 58.263h5.238zm-.002-35.115V3.194H.885l.001 19.953h5.238zm16.887-2.619H3.506v5.238h19.506v-5.238zm-6.5 48.1c-5.74 0-10.385-4.644-10.385-10.365H.889c0 8.621 6.998 15.604 15.623 15.604v-5.238zm45.513-37.752H42.518v5.237h19.507v-5.238zM63.74 3.193v25.971h5.237V3.194H63.74zm-1.716 32.918a6.95 6.95 0 006.953-6.947H63.74c0 .94-.765 1.71-1.716 1.71v5.237zm-26.46-6.947a6.95 6.95 0 006.953 6.947v-5.238a1.713 1.713 0 01-1.716-1.71h-5.238zm5.237 0V11.85h-5.237v17.314h5.237zm7.135-23.352H66.36V.575H47.937v5.238zm-1.739-4.578l-9.753 8.657 3.477 3.918 9.753-8.658-3.477-3.917zM62.025 78.49H42.518v5.237h19.507V78.49zm1.716-27.681v25.97l5.237.001V50.808h-5.237zm-1.716 32.918a6.95 6.95 0 006.953-6.947h-5.237c0 .94-.765 1.71-1.716 1.71v5.237zm-26.46-6.947a6.95 6.95 0 006.953 6.947v-5.238a1.713 1.713 0 01-1.716-1.71h-5.238zm5.237 0V59.465h-5.237v17.314h5.237zm7.135-23.352H66.36V48.19H47.937v5.238zm-1.739-4.578l-9.753 8.657 3.477 3.917 9.753-8.657-3.477-3.917z" fill="currentColor"/></symbol><symbol id="trends2" viewBox="0 0 103 72"><path d="M69.131 71.16H26C11.987 71.16.63 59.852.63 45.906c0-11.456 7.66-21.133 18.166-24.223C24.276 9.183 36.803.448 51.371.448c18.086 0 33.022 13.463 35.232 30.873 8.9 2.143 15.51 10.12 15.51 19.636 0 11.157-9.088 20.203-20.297 20.203H69.13z" fill="currentColor"/></symbol><symbol id="trends3" viewBox="0 0 84 53"><path d="M37.022 50.339l9.821-47.141M17.38 42.896L2.648 28.009 17.38 13.122m49.105 0L81.217 28.01 66.485 42.896" fill="transparent" stroke="currentColor" stroke-width="5.238" stroke-linecap="round" stroke-linejoin="round"/></symbol><symbol id="trends4" viewBox="0 0 86 86"><path d="M60.848 53.895c0 16.041-13.003 29.046-29.044 29.046-16.04 0-29.044-13.005-29.044-29.047 0-16.041 13.004-29.046 29.044-29.046s29.044 13.005 29.044 29.047z" fill="currentColor"/><path d="M35.208 9.623a28.923 28.923 0 0118.386-6.56c16.04 0 29.044 13.005 29.044 29.047a28.928 28.928 0 01-6.554 18.38m-15.236 3.404c0 16.042-13.003 29.047-29.044 29.047-16.04 0-29.044-13.005-29.044-29.047 0-16.041 13.004-29.046 29.044-29.046s29.044 13.005 29.044 29.047z" fill="transparent" stroke="currentColor" stroke-width="5.238" stroke-linecap="round" stroke-linejoin="round"/></symbol><symbol id="trends5" viewBox="0 0 94 94"><path d="M58.228 54.347l31.15-12.005c5.838-2.25 5.724-10.568-.175-12.7L9.776.934C4.25-1.063-.994 4.444 1.253 9.881l32.83 79.404c2.4 5.802 10.69 5.534 12.667-.41l11.478-34.528z" fill="currentColor"/></symbol><symbol id="trends6" viewBox="0 0 69 70"><path d="M2.739 3.575v62.854h62.852M18.45 42.86L32.2 29.11l9.82 9.822 21.606-21.606m-14.7-1.965h16.667v16.667" fill="transparent" stroke="currentColor" stroke-width="5.238" stroke-linecap="round" stroke-linejoin="round"/></symbol><symbol id="trends7" viewBox="0 0 72 93"><path d="M11.363 31.855v-4.116c0-13.679 10.842-24.693 24.307-24.693 13.466 0 24.308 11.014 24.308 24.693v4.116m-48.615 0c-4.456 0-8.102 3.704-8.102 8.23v41.156c0 4.527 3.646 8.23 8.102 8.23h48.615c4.456 0 8.102-3.703 8.102-8.23V40.086c0-4.527-3.646-8.231-8.102-8.231m-48.615 0h48.615" fill="transparent" stroke="currentColor" stroke-width="5.893" stroke-linecap="round"/><rect x="3.916" y="32.509" width="64.164" height="56.962" rx="4.583" fill="currentColor"/></symbol><symbol id="trends8" viewBox="0 0 70 92"><path d="M35.232 3.356c-12.017 10.164-19.55 10.64-32.083 10.64v40.908c0 16.325 11.418 20.584 32.083 33.568 20.664-12.984 32.082-17.243 32.082-33.568V13.995c-12.534 0-20.066-.475-32.082-10.64z" fill="transparent" stroke="currentColor" stroke-width="5.238" stroke-linejoin="round"/></symbol><symbol id="trends9" viewBox="0 0 79 78"><path d="M78.095 57.089a.654.654 0 00-.192-.463L50.001 28.724v-3.512C50 11.635 38.995.629 25.418.629 11.842.63.836 11.635.836 25.212c0 13.576 11.006 24.582 24.582 24.582 5.7 0 10.948-1.94 15.118-5.197l12.976 12.22v10.536h10.536v10.535H77.44a.655.655 0 00.655-.654V57.089z" fill="currentColor"/></symbol></svg>